<?xml version="1.0" encoding="iso-8859-1"?>
<!-- Generator: Adobe Illustrator 19.0.0, SVG Export Plug-In . SVG Version: 6.00 Build 0)  -->
<svg version="1.1" id="Capa_1" xmlns="http://www.w3.org/2000/svg" xmlns:xlink="http://www.w3.org/1999/xlink" x="0px" y="0px"
	 viewBox="0 0 480 480" style="enable-background:new 0 0 480 480;" xml:space="preserve">
	<g id="hospital_g">
<path style="fill:#B6E8FA;" d="M240,8C111.87,8,8,111.87,8,240s103.87,232,232,232s232-103.87,232-232S368.13,8,240,8z M416,304H304
	v112H176V304H64V176h112V64h128v112h112V304z"/>
<path style="fill:#B40021;" d="M304,64H176v112H64v128h112v112h128V304h112V176H304V64z"/>
<g>
	<path style="fill:#231F20;" d="M240,480C107.452,480,0,372.548,0,240S107.452,0,240,0s240,107.452,240,240
		C479.85,372.486,372.486,479.85,240,480z M240,16C116.288,16,16,116.288,16,240s100.288,224,224,224s224-100.288,224-224
		C463.859,116.347,363.653,16.141,240,16z"/>
	<path style="fill:#231F20;" d="M304,424H176c-4.418,0-8-3.582-8-8V312H64c-4.418,0-8-3.582-8-8V176c0-4.418,3.582-8,8-8h104V64
		c0-4.418,3.582-8,8-8h128c4.418,0,8,3.582,8,8v104h104c4.418,0,8,3.582,8,8v128c0,4.418-3.582,8-8,8H312v104
		C312,420.418,308.418,424,304,424z M184,408h112V304c0-4.418,3.582-8,8-8h104V184H304c-4.418,0-8-3.582-8-8V72H184v104
		c0,4.418-3.582,8-8,8H72v112h104c4.418,0,8,3.582,8,8V408z"/>
</g>
</g>
</svg>
