<svg height="480pt" viewBox="0 0 480 480" width="480pt" xmlns="http://www.w3.org/2000/svg">
    <g id="hospital_g">
    <path d="m304 64h-128v112h-112v128h112v112h128v-112h112v-128h-112zm0 0" fill="#9bc9ff"/>
    <g fill="#1e81ce">
        <path d="m240 480c-132.546875 0-240-107.453125-240-240s107.453125-240 240-240 240 107.453125 240 240c-.148438 132.484375-107.515625 239.851562-240 240zm0-464c-123.710938 0-224 100.289062-224 224s100.289062 224 224 224 224-100.289062 224-224c-.140625-123.652344-100.347656-223.859375-224-224zm0 0"/>
        <path d="m304 424h-128c-4.417969 0-8-3.582031-8-8v-104h-104c-4.417969 0-8-3.582031-8-8v-128c0-4.417969 3.582031-8 8-8h104v-104c0-4.417969 3.582031-8 8-8h128c4.417969 0 8 3.582031 8 8v104h104c4.417969 0 8 3.582031 8 8v128c0 4.417969-3.582031 8-8 8h-104v104c0 4.417969-3.582031 8-8 8zm-120-16h112v-104c0-4.417969 3.582031-8 8-8h104v-112h-104c-4.417969 0-8-3.582031-8-8v-104h-112v104c0 4.417969-3.582031 8-8 8h-104v112h104c4.417969 0 8 3.582031 8 8zm0 0"/>
    </g>
    </g>
</svg>
