<?xml version="1.0" encoding="iso-8859-1"?>
<!-- Generator: Adobe Illustrator 19.0.0, SVG Export Plug-In . SVG Version: 6.00 Build 0)  -->
<svg version="1.1" id="Capa_1" xmlns="http://www.w3.org/2000/svg" xmlns:xlink="http://www.w3.org/1999/xlink" x="0px" y="0px"
	 viewBox="0 0 512 512" style="enable-background:new 0 0 512 512;" xml:space="preserve">
  <g id="nuclear_g">
<path style="fill:#57555C;" d="M256,0C115.3,0,0,115.3,0,256s115.3,256,256,256s256-115.3,256-256S396.7,0,256,0z"/>
<path style="fill:#3C3A41;" d="M512,256c0,140.7-115.3,256-256,256V0C396.7,0,512,115.3,512,256z"/>
<path style="fill:#FEDB41;" d="M256,30C131.8,30,30,131.8,30,256s101.8,226,226,226s225-101.8,225-226S380.2,30,256,30z"/>
<path style="fill:#FEA832;" d="M481,256c0,124.2-100.8,226-225,226V30C380.2,30,481,131.8,481,256z"/>
<path style="fill:#57555C;" d="M256,211c-24.901,0-45,20.099-45,45s20.099,45,45,45s45-20.099,45-45S280.901,211,256,211z"/>
<path style="fill:#3C3A41;" d="M333.007,419.389l-45.015-77.959c-4.131-7.163-1.685-16.333,5.479-20.479
	C316.615,307.533,331,282.646,331,256c0-8.291,6.709-15,15-15h90c8.291,0,15,6.709,15,15c0,69.302-37.354,134.019-97.471,168.867
	C346.249,429.06,337.116,426.489,333.007,419.389z"/>
<g>
	<path style="fill:#57555C;" d="M353.5,87.1C324.101,70,290.2,61.601,256,61.601c-33.9,0-67.8,8.399-97.5,25.499
		c-7.2,4.2-9.6,13.5-5.4,20.4l45,78.001c3.9,7.2,13.2,9.899,20.4,5.4c11.4-6.301,24.3-9.6,37.5-9.6c13.2,0,26.1,3.3,37.5,9.6
		c7.2,4.199,16.5,1.8,20.4-5.4l45-78.001C363.1,100.3,360.7,91.3,353.5,87.1z"/>
	<path style="fill:#57555C;" d="M158.485,424.838C98.354,389.975,61,325.287,61,256c0-8.291,6.709-15,15-15h90
		c8.291,0,15,6.709,15,15c0,26.646,14.385,51.533,37.529,64.951c7.163,4.146,9.609,13.315,5.479,20.479l-45,77.93
		C174.939,426.421,165.799,429.05,158.485,424.838z"/>
</g>
<g>
	<path style="fill:#3C3A41;" d="M301,256c0,24.901-20.099,45-45,45v-90C280.901,211,301,231.099,301,256z"/>
	<path style="fill:#3C3A41;" d="M358.9,107.5l-45,78.001c-3.9,7.2-13.2,9.598-20.4,5.4c-11.4-6.301-24.3-9.6-37.5-9.6v-119.7
		c34.2,0,68.101,8.399,97.5,25.499C360.7,91.3,363.1,100.3,358.9,107.5z"/>
</g>
</g>
</svg>
