<svg id="Capa_1" enable-background="new 0 0 512 512" height="512" viewBox="0 0 512 512" width="512"
     xmlns="http://www.w3.org/2000/svg">
    <g id="hospital_g">
        <circle cx="256" cy="256" fill="#457899" r="256"/>
        <path d="m256 0v512c141.482 0 256-114.498 256-256 0-141.482-114.497-256-256-256z" fill="#365c75"/>
        <path d="m256 451.75v-30c91.395 0 165.75-74.355 165.75-165.75h30c0 107.937-87.814 195.75-195.75 195.75z"
              fill="#274254"/>
        <path d="m90.25 256h-30c0-107.937 87.814-195.75 195.75-195.75v30c-91.395 0-165.75 74.355-165.75 165.75z"
              fill="#365c75"/>
        <path d="m301.125 376.438h-90.25v-75.313h-75.313v-90.25h75.313v-75.313h90.25v75.313h75.313v90.25h-75.313z"
              fill="#e4f3ff"/>
        <path d="m301.125 210.875v-75.312h-45.125v240.875h45.125v-75.312h75.312v-90.25h-75.312z" fill="#c3dafd"/>
        <path d="m240.875 346.438h30.25v-75.313h75.313v-30.25h-75.313v-75.313h-30.25v75.313h-75.313v30.25h75.313z"
              fill="#ff5c5c"/>
        <path d="m271.125 240.875v-75.313h-15.125v180.876h15.125v-75.313h75.313v-30.25z" fill="#ff3838"/>
    </g>
</svg>
